<svg width="235" height="61" viewBox="0 0 235 61" fill="none" xmlns="http://www.w3.org/2000/svg">
<g clip-path="url(#clip0_583_67006)">
<path d="M0.0566406 30.0699L6.84494 23.2816L13.6332 30.0699L6.84494 36.8582L0.0566406 30.0699Z" fill="#F0B90B"/>
<path d="M30.1108 13.587L41.7473 25.2235L48.5337 18.4324L30.1108 0.00952148L11.688 18.4324L18.4744 25.2235L30.1108 13.587Z" fill="#F0B90B"/>
<path d="M46.5967 30.0713L53.385 23.283L60.1733 30.0713L53.385 36.8596L46.5967 30.0713Z" fill="#F0B90B"/>
<path d="M30.1108 46.5516L18.4744 34.9199L11.688 41.7063L30.1108 60.1291L48.5337 41.7063L41.7473 34.9199L30.1108 46.5516Z" fill="#F0B90B"/>
<path d="M23.3286 30.0713L30.1169 23.283L36.9052 30.0713L30.1169 36.8596L23.3286 30.0713Z" fill="#F0B90B"/>
<path d="M84.8272 30.0692H73.7534V6.79147H84.5601C89.3292 6.79147 92.243 9.176 92.243 12.81V12.8768C92.243 15.5045 90.8457 16.9639 89.1813 17.8986C91.8758 18.9287 93.5402 20.493 93.5402 23.6215V23.6882C93.5402 27.9422 90.0779 30.0692 84.8272 30.0692ZM87.1545 13.6732C87.1545 12.1423 85.9574 11.2887 83.8161 11.2887H78.7609V16.2151H83.4584C85.719 16.2151 87.1497 15.4855 87.1497 13.7543L87.1545 13.6732ZM88.4517 22.9872C88.4517 21.4229 87.288 20.4596 84.6603 20.4596H78.7419V25.5815H84.8272C87.0877 25.5815 88.4517 24.7803 88.4517 23.0539V22.9872ZM99.1582 30.0692V6.79147H104.28V30.0692H99.1582ZM127.453 30.0692L116.179 15.2613V30.0454H111.119V6.79147H115.84L126.747 21.1225V6.79147H131.802V30.0692H127.453ZM154.823 30.0692L152.696 24.8233H142.852L140.721 30.0692H135.503L145.48 6.62455H150.225L160.202 30.0692H154.823ZM147.774 12.7766L144.679 20.326H150.879L147.774 12.7766ZM180.232 30.0692L168.958 15.2613V30.0454H163.903V6.79147H168.624L179.531 21.1225V6.79147H184.586V30.0692H180.232ZM201.483 30.4698C199.906 30.4932 198.341 30.199 196.881 29.6047C195.42 29.0105 194.094 28.1285 192.982 27.0111C191.869 25.8937 190.993 24.5639 190.405 23.1007C189.817 21.6376 189.53 20.0712 189.56 18.4947V18.428C189.56 11.8133 194.549 6.39087 201.698 6.39087C206.085 6.39087 208.713 7.85497 210.878 9.98197L207.616 13.74C205.823 12.109 203.992 11.1122 201.664 11.1122C197.739 11.1122 194.911 14.3743 194.911 18.3612V18.428C194.911 22.4197 197.673 25.7437 201.664 25.7437C204.325 25.7437 205.956 24.6802 207.783 23.0206L211.04 26.3112C208.632 28.8722 205.975 30.4698 201.483 30.4698ZM215.156 30.0692V6.79147H232.73V11.3459H220.24V16.0673H231.209V20.6265H220.24V25.5148H232.878V30.0692H215.156ZM170.847 36.8508H173.741V50.6811H182.402V53.3136H170.847V36.8508ZM202.089 53.3279H199.027L197.353 49.3505H189.56L187.867 53.3279H184.901L192.15 36.7316H194.835L202.089 53.3279ZM193.447 40.1939L190.624 46.7848H196.294L193.447 40.1939ZM217.979 41.0667C217.979 43.0888 216.849 44.1236 215.623 44.7627C217.555 45.4208 218.895 46.5272 218.895 48.7878C218.895 51.7541 216.472 53.3279 212.8 53.3279H205.17V36.8508H212.562C215.886 36.8508 217.979 38.4771 217.979 41.0667ZM215.084 41.5436C215.084 40.2035 214.049 39.4261 212.19 39.4261H208.021V43.8041H211.975C213.835 43.7946 215.084 43.0649 215.084 41.534V41.5436ZM216 48.4921C216 47.0614 214.894 46.2554 212.609 46.2554H208.021V50.7717H212.824C214.803 50.7622 216 49.9896 216 48.4826V48.4921ZM228.953 43.7707C232.434 44.6196 234.246 45.8691 234.246 48.6209C234.246 51.7303 231.824 53.5664 228.361 53.5664C225.822 53.5773 223.37 52.6364 221.489 50.9291L223.23 48.8593C224.808 50.2233 226.387 51.0006 228.433 51.0006C230.221 51.0006 231.352 50.1756 231.352 48.9022C231.352 47.7052 230.693 47.0661 227.632 46.3603C224.127 45.5162 222.147 44.4527 222.147 41.4196C222.147 38.5582 224.503 36.6171 227.775 36.6171C229.951 36.5739 232.071 37.3078 233.755 38.6869L232.201 40.8759C230.935 39.8374 229.363 39.2426 227.727 39.1829C226.034 39.1829 225.042 40.0509 225.042 41.1573C225.042 42.4449 225.796 43.0172 228.953 43.7707ZM73.7534 43.7421H163.993V46.4843H73.7534V43.7421Z" fill="#F0B90B"/>
</g>
<defs>
<clipPath id="clip0_583_67006">
<rect width="234.161" height="60.0901" fill="white"/>
</clipPath>
</defs>
</svg>
