<?xml version="1.0" encoding="utf-8"?>
<!-- Generator: Adobe Illustrator 28.0.0, SVG Export Plug-In . SVG Version: 6.00 Build 0)  -->
<svg version="1.1" id="Layer_1" xmlns="http://www.w3.org/2000/svg" xmlns:xlink="http://www.w3.org/1999/xlink" x="0px" y="0px"
	 viewBox="0 0 317.76 148.95" style="enable-background:new 0 0 317.76 148.95;" xml:space="preserve">
<style type="text/css">
	.st0{fill:#F7F5F1;}
</style>
<path class="st0" d="M140.82,121.99l-1.99-19.23h-0.07l-15.12,3.64l1.16-7.04h35.71l1.17,7.04l-15.12-3.64h-0.07l-1.99,19.23
	l3.48,25.08h-10.63L140.82,121.99L140.82,121.99z M6.61,39.11L0.95,2.19h20.57c19.79,0,31.35,6.89,31.35,18.79
	c0,8.23-5.34,14.46-14.46,16.9C50.87,39.55,58.2,47,58.2,58.01c0,13.9-10.35,22.01-27.91,22.01H0.95L6.61,39.11z M23.62,75.02
	c14.12,0,22.35-6.23,22.35-16.79S38.3,41.55,25.18,41.55H12.84l4.89,33.47H23.62L23.62,75.02z M21.29,36.77
	c13.45-0.22,21.35-5.78,21.35-15.12S35.41,7.2,22.96,7.2h-5.34l-4.67,29.58C12.95,36.77,21.29,36.77,21.29,36.77z M66,40.56
	c0-22.69,16.9-39.37,37.8-39.48c21.02-0.11,37.7,16.57,37.7,39.48c0,24.68-16.79,41.36-37.92,41.25C82.79,81.81,66,65.13,66,40.56z
	 M127.93,40.56c0-20.02-11.12-35.25-27.24-36.25C88.01,9.76,79.56,25.1,79.56,40.56c0,21.68,10.9,37.25,26.8,38.58
	C119.25,72.57,127.93,57.01,127.93,40.56z M154.95,39.11l-5.67-36.91h19.91c28.13,0,46.58,15.57,46.58,39.25
	s-15.46,38.58-39.03,38.58h-27.46C149.28,80.02,154.95,39.11,154.95,39.11z M173.74,75.02c17.35,0,28.46-13.12,28.46-33.24
	S189.75,7.2,170.51,7.2h-4.23l-5.22,31.91l5.22,35.91H173.74L173.74,75.02z M229.23,39.11l-5.67-36.91h17.35l-5.34,33.92h37.36
	l-5.33-33.92h17.35l-5.67,36.91l5.67,40.92h-17.35l5.33-37.81h-37.36l5.34,37.81h-17.35L229.23,39.11L229.23,39.11z M302.84,39.11
	l-5.67-36.91h17.35l-5.67,36.91l5.67,40.92h-17.35C297.17,80.02,302.84,39.11,302.84,39.11z M45.87,99.36l-17.65,47.71H17.93
	l-4.22-23.85L0.82,99.36h13.15l3.14,22.36l9.74,18.81l15-41.17H45.87L45.87,99.36z M51.48,121.99l-2.19-22.63h28.69l0.96,6.43
	l-20.92-1.82l-1.85,15.43l17.25-1.24l1.78,7.91l-18.95-1.99l1.78,17.76l21.6-4.05l-0.89,9.28H49.27L51.48,121.99L51.48,121.99z
	 M87.66,106.45l-5.39-7.09H95.7l9.34,24.13l9.81,10.56V99.36h4.09v47.71h-7.77l-8.66-22.36l-10.77-13.9v36.26h-4.09L87.66,106.45
	L87.66,106.45z M166.38,126.49V99.36h8.52v25.01c0,13.29,1.98,19.29,11.72,22.15c8.59-2.86,10.7-10.84,10.7-20.92V99.36h4.09v26.24
	c0,15.13-6.95,22.63-16.49,22.56C172.18,148.16,166.38,141.55,166.38,126.49L166.38,126.49z M234,147.07l-8.25-20.52
	c-1.23,0.13-2.52,0.21-3.88,0.21h-5.93l2.93,20.31h-10.63l2.26-25.08l-2.26-22.63h16.63c9.88,0,15.68,5.39,15.68,13.7
	c0,6.68-3.82,11.04-10.63,12.81l14.11,21.2L234,147.07L234,147.07z M233.05,113.06c0-6.75-4.64-10.63-12.54-10.63h-2.72l-2.39,19.56
	l0.21,1.7h4.91C228.42,123.35,233.05,119.47,233.05,113.06L233.05,113.06z M250.31,121.99l-2.19-22.63h28.69l0.96,7.04l-21.53-2.43
	l-1.25,15.43l17.25-1.24l1.77,7.91l-18.95-1.99l1.17,17.76l22.21-4.05l-0.89,9.28h-29.45L250.31,121.99L250.31,121.99z
	 M284.11,142.78v-9.88l15,12.68c6.95,0,11.25-4.3,11.25-8.73c0-11.45-26.52-7.77-26.52-25.63c0-6.34,6.41-12.27,15.95-12.61
	c7.22,0,9.68,1.78,13.98,4.71v9.54l-13.29-11.66c-7.5,0.21-10.5,5.33-10.5,8.18c0,11.18,26.78,7.15,26.78,25.63
	c0,8.18-4.91,12.88-17.65,13.15C292.9,148.3,289.08,146.39,284.11,142.78z"/>
</svg>
