<?xml version="1.0" encoding="utf-8"?>
<!-- Generator: Adobe Illustrator 28.0.0, SVG Export Plug-In . SVG Version: 6.00 Build 0)  -->
<svg version="1.1" id="Layer_1" xmlns="http://www.w3.org/2000/svg" xmlns:xlink="http://www.w3.org/1999/xlink" x="0px" y="0px"
	 viewBox="0 0 378.6 132.9" style="enable-background:new 0 0 378.6 132.9;" xml:space="preserve">
<style type="text/css">
	.st0{fill:#FFFFFF;}
</style>
<path class="st0" d="M15.4,23.8c2.4,0,4.4-0.1,6-0.4c1.6-0.3,2.9-0.8,3.9-1.4c1-0.6,1.6-1.4,2.1-2.4c0.4-1,0.6-2.1,0.6-3.5h2.3v18.2
	h-2.3c0-1.3-0.2-2.5-0.6-3.5c-0.4-1-1-1.8-2-2.4c-0.9-0.7-2.2-1.1-3.9-1.5c-1.6-0.3-3.7-0.5-6.1-0.5v15c0,1.5,0.2,2.7,0.5,3.6
	c0.4,0.9,1,1.7,1.8,2.3c0.9,0.6,2,1,3.4,1.3c1.4,0.2,3.2,0.4,5.2,0.4c2.3,0,4.3-0.2,6-0.5c1.7-0.3,3-0.9,4.1-1.7
	c1.1-0.8,2-1.9,2.7-3.2c0.7-1.3,1.2-2.9,1.7-4.9h2.5l-1,13.1H1.1v-2.5c1.5-0.1,2.8-0.2,3.8-0.4c1-0.2,1.7-0.6,2.2-1.1
	c0.5-0.5,0.9-1.3,1.1-2.3c0.2-1,0.3-2.2,0.3-3.8v-31C8.4,9.2,8.3,8,8.1,7C8,6.1,7.7,5.3,7.2,4.8c-0.5-0.6-1.1-0.9-2-1.1
	c-0.9-0.2-2-0.4-3.5-0.4V0.7h38.4l0.6,11.7h-2.3c-0.3-1.8-0.7-3.2-1.3-4.3c-0.6-1.1-1.4-2-2.5-2.7c-1-0.7-2.4-1.1-4-1.4
	c-1.6-0.3-3.5-0.4-5.8-0.4h-8.5c-0.8,0-1.1,0.4-1.1,1.1V23.8z M66.3,51.9v-2.5c1.7-0.1,3.1-0.2,4.1-0.4c1-0.2,1.8-0.6,2.4-1.1
	c0.6-0.6,1-1.3,1.2-2.2c0.2-1,0.3-2.2,0.3-3.8v-31c0-1.6-0.1-2.8-0.2-3.8c-0.2-1-0.5-1.7-0.9-2.3c-0.5-0.6-1.1-0.9-2-1.1
	c-0.9-0.2-2-0.4-3.5-0.4V0.7H91c4,0,7.7,0.7,11.1,2c3.4,1.3,6.3,3.2,8.8,5.5c2.5,2.3,4.4,5.1,5.8,8.4c1.4,3.2,2.1,6.8,2.1,10.6
	c0,3.6-0.6,7-1.9,10c-1.3,3-3.1,5.6-5.4,7.8c-2.3,2.2-5.1,3.9-8.3,5.1c-3.2,1.2-6.8,1.8-10.6,1.8H66.3z M82.4,3.9
	c-0.8,0-1.1,0.4-1.1,1.1v36c0,5.1,3.3,7.6,9.9,7.6c6.1,0,10.7-1.8,14-5.4c3.2-3.6,4.9-8.9,4.9-15.9c0-3.7-0.4-7-1.3-9.9
	c-0.9-2.9-2.2-5.3-3.8-7.3c-1.7-2-3.7-3.5-6-4.6c-2.3-1.1-5-1.6-8-1.6H82.4z M157.3,23.8c2.4,0,4.4-0.1,6-0.4
	c1.6-0.3,2.9-0.8,3.9-1.4c1-0.6,1.6-1.4,2.1-2.4c0.4-1,0.6-2.1,0.6-3.5h2.3v18.2h-2.3c0-1.3-0.2-2.5-0.6-3.5c-0.4-1-1-1.8-2-2.4
	c-0.9-0.7-2.2-1.1-3.9-1.5c-1.6-0.3-3.7-0.5-6.1-0.5v15c0,1.5,0.2,2.7,0.5,3.6c0.4,0.9,1,1.7,1.8,2.3c0.9,0.6,2,1,3.4,1.3
	c1.4,0.2,3.2,0.4,5.2,0.4c2.3,0,4.3-0.2,6-0.5c1.7-0.3,3-0.9,4.1-1.7c1.1-0.8,2-1.9,2.7-3.2c0.7-1.3,1.2-2.9,1.7-4.9h2.5l-1,13.1
	H143v-2.5c1.5-0.1,2.8-0.2,3.8-0.4c1-0.2,1.7-0.6,2.2-1.1c0.5-0.5,0.9-1.3,1.1-2.3c0.2-1,0.3-2.2,0.3-3.8v-31c0-1.6-0.1-2.8-0.2-3.8
	c-0.2-1-0.5-1.7-0.9-2.3c-0.5-0.6-1.1-0.9-2-1.1c-0.9-0.2-2-0.4-3.5-0.4V0.7h38.4l0.6,11.7h-2.3c-0.3-1.8-0.7-3.2-1.3-4.3
	c-0.6-1.1-1.4-2-2.5-2.7s-2.4-1.1-4-1.4c-1.6-0.3-3.5-0.4-5.8-0.4h-8.5c-0.8,0-1.1,0.4-1.1,1.1V23.8z M209.6,36.3h2.5
	c0.3,2,0.9,3.8,1.8,5.4c0.9,1.6,1.9,3,3.2,4.1c1.3,1.1,2.8,2,4.5,2.6c1.7,0.6,3.6,0.9,5.6,0.9c3.3,0,5.9-0.8,7.8-2.3
	c1.9-1.6,2.9-3.7,2.9-6.3c0-1.1-0.2-2.1-0.6-3.1c-0.4-0.9-1-1.8-1.9-2.7c-0.9-0.9-2.1-1.7-3.6-2.6c-1.5-0.8-3.4-1.8-5.6-2.7
	c-2.8-1.2-5.1-2.3-6.9-3.5c-1.9-1.1-3.3-2.3-4.5-3.5c-1.1-1.2-1.9-2.5-2.4-3.8c-0.5-1.4-0.7-2.9-0.7-4.6c0-2,0.4-3.9,1.1-5.6
	c0.7-1.7,1.8-3.2,3.1-4.5c1.3-1.3,2.9-2.2,4.7-2.9c1.8-0.7,3.8-1,6-1c1.9,0,3.8,0.3,5.4,0.9c1.7,0.6,3.4,1.6,5.1,3l1.7-3h1.5
	l0.7,13.2h-2.5c-1.1-3.6-2.6-6.3-4.6-8.1c-2-1.8-4.4-2.7-7.3-2.7c-2.7,0-4.9,0.7-6.5,2c-1.6,1.3-2.4,3.1-2.4,5.4
	c0,1.1,0.2,2,0.5,2.9c0.4,0.9,0.9,1.7,1.7,2.5c0.8,0.8,1.8,1.6,3.1,2.3c1.3,0.8,2.9,1.6,4.8,2.4c3.3,1.5,6,2.8,8.2,4.1
	c2.2,1.3,3.9,2.5,5.2,3.8c1.3,1.3,2.2,2.6,2.7,4c0.5,1.4,0.8,3,0.8,4.7c0,2.2-0.4,4.3-1.3,6.1c-0.9,1.9-2.1,3.5-3.7,4.8
	c-1.6,1.3-3.5,2.4-5.7,3.1c-2.2,0.7-4.6,1.1-7.3,1.1c-2.5,0-4.8-0.4-6.8-1.1c-2-0.7-4.1-1.9-6.1-3.6l-1.9,3.3h-1.5L209.6,36.3z
	 M269.9,36.3h2.5c0.3,2,0.9,3.8,1.8,5.4c0.9,1.6,1.9,3,3.2,4.1c1.3,1.1,2.8,2,4.5,2.6c1.7,0.6,3.6,0.9,5.6,0.9
	c3.3,0,5.9-0.8,7.8-2.3c1.9-1.6,2.9-3.7,2.9-6.3c0-1.1-0.2-2.1-0.6-3.1c-0.4-0.9-1-1.8-1.9-2.7c-0.9-0.9-2.1-1.7-3.6-2.6
	c-1.5-0.8-3.4-1.8-5.6-2.7c-2.8-1.2-5.1-2.3-6.9-3.5c-1.9-1.1-3.3-2.3-4.5-3.5c-1.1-1.2-1.9-2.5-2.4-3.8c-0.5-1.4-0.7-2.9-0.7-4.6
	c0-2,0.4-3.9,1.1-5.6c0.7-1.7,1.8-3.2,3.1-4.5c1.3-1.3,2.9-2.2,4.7-2.9c1.8-0.7,3.8-1,6-1c1.9,0,3.8,0.3,5.4,0.9
	c1.7,0.6,3.4,1.6,5.1,3l1.7-3h1.5l0.7,13.2h-2.5c-1.1-3.6-2.6-6.3-4.6-8.1c-2-1.8-4.4-2.7-7.3-2.7c-2.7,0-4.9,0.7-6.5,2
	c-1.6,1.3-2.4,3.1-2.4,5.4c0,1.1,0.2,2,0.5,2.9c0.4,0.9,0.9,1.7,1.7,2.5c0.8,0.8,1.8,1.6,3.1,2.3c1.3,0.8,2.9,1.6,4.8,2.4
	c3.3,1.5,6,2.8,8.2,4.1c2.2,1.3,3.9,2.5,5.2,3.8c1.3,1.3,2.2,2.6,2.7,4c0.5,1.4,0.8,3,0.8,4.7c0,2.2-0.4,4.3-1.3,6.1
	c-0.9,1.9-2.1,3.5-3.7,4.8c-1.6,1.3-3.5,2.4-5.7,3.1c-2.2,0.7-4.6,1.1-7.3,1.1c-2.5,0-4.8-0.4-6.8-1.1c-2-0.7-4.1-1.9-6.1-3.6
	l-1.9,3.3h-1.5L269.9,36.3z M358.9,33.3h-17.8c-0.8,1.8-1.4,3.4-1.9,4.8c-0.5,1.4-1,2.6-1.3,3.6c-0.3,1-0.6,1.9-0.7,2.6
	c-0.1,0.7-0.2,1.3-0.2,1.7c0,1.2,0.4,2.1,1.2,2.6c0.8,0.5,2.1,0.7,4,0.7v2.5H326v-2.5c1-0.1,1.9-0.3,2.6-0.5
	c0.7-0.2,1.4-0.5,1.9-0.9c0.6-0.4,1-0.9,1.5-1.6c0.4-0.7,0.8-1.4,1.2-2.4l17.3-43.3h2.9l15.1,37.5c1,2.5,1.9,4.5,2.7,6
	c0.8,1.5,1.5,2.6,2.2,3.4c0.7,0.8,1.5,1.2,2.3,1.5c0.8,0.2,1.8,0.3,3,0.3v2.6H357v-2.6c2.3,0,4-0.2,4.9-0.6c0.9-0.4,1.3-1.2,1.3-2.2
	c0-0.4,0-0.9-0.1-1.2c0-0.4-0.1-0.8-0.2-1.2c-0.1-0.4-0.3-0.9-0.5-1.5c-0.2-0.6-0.4-1.2-0.8-2L358.9,33.3z M342.5,30h15.2l-7.4-19.6
	L342.5,30z M41.8,81h1.9l0.6,15.3h-2.5c-1-3.9-2.9-7-5.7-9.2c-2.8-2.2-6.2-3.3-10.1-3.3c-2.7,0-5.1,0.5-7.2,1.6
	c-2.1,1.1-3.9,2.6-5.4,4.6c-1.5,2-2.6,4.4-3.4,7.3c-0.8,2.9-1.2,6.1-1.2,9.8c0,7.1,1.5,12.6,4.5,16.5c3,3.8,7.3,5.8,12.9,5.8
	c8.6,0,14.1-4.5,16.5-13.6h2.7v16.6h-2.3l-1.5-5.3c-4.7,3.9-10.3,5.9-16.9,5.9c-3.8,0-7.2-0.6-10.2-1.8c-3-1.2-5.6-2.9-7.8-5.1
	c-2.2-2.2-3.8-4.9-5-8c-1.2-3.2-1.8-6.7-1.8-10.5c0-4,0.6-7.7,1.9-11c1.2-3.3,3-6.2,5.2-8.6c2.2-2.4,4.9-4.3,8.1-5.6
	c3.1-1.3,6.6-2,10.3-2c2.7,0,5.2,0.4,7.5,1.1c2.4,0.8,4.9,2,7.6,3.6L41.8,81z M90.6,113.7H72.8c-0.8,1.8-1.4,3.4-1.9,4.8
	c-0.5,1.4-1,2.6-1.3,3.6c-0.3,1-0.6,1.9-0.7,2.6c-0.1,0.7-0.2,1.3-0.2,1.7c0,1.2,0.4,2.1,1.2,2.6c0.8,0.5,2.1,0.7,4,0.7v2.5H57.7
	v-2.5c1-0.1,1.9-0.3,2.6-0.5c0.7-0.2,1.4-0.5,1.9-0.9c0.6-0.4,1-0.9,1.5-1.6c0.4-0.7,0.8-1.4,1.2-2.4L82.3,81h2.9l15.1,37.5
	c1,2.5,1.9,4.5,2.7,6c0.8,1.5,1.5,2.6,2.2,3.4c0.7,0.8,1.5,1.2,2.3,1.5c0.8,0.2,1.8,0.3,3,0.3v2.6H88.7v-2.6c2.3,0,4-0.2,4.9-0.6
	c0.9-0.4,1.3-1.2,1.3-2.2c0-0.4,0-0.9-0.1-1.2c0-0.4-0.1-0.8-0.2-1.2c-0.1-0.4-0.3-0.9-0.5-1.5c-0.2-0.6-0.4-1.2-0.8-2L90.6,113.7z
	 M74.2,110.3h15.2l-7.4-19.6L74.2,110.3z M162,93.8c0,2.3-0.4,4.5-1.1,6.3c-0.8,1.9-1.9,3.4-3.6,4.7c-1.6,1.3-3.7,2.3-6.3,3
	c-2.6,0.7-5.7,1.1-9.5,1.1h-6v12.9c0,1.6,0.1,3,0.3,4c0.2,1,0.6,1.9,1.3,2.4c0.7,0.6,1.6,1,2.8,1.2c1.2,0.2,2.8,0.3,4.8,0.3v2.5
	h-23.5v-2.5c1.5-0.1,2.8-0.2,3.8-0.4c1-0.2,1.7-0.6,2.2-1.1c0.5-0.5,0.9-1.3,1.1-2.3c0.2-1,0.3-2.2,0.3-3.8v-31
	c0-1.6-0.1-2.8-0.2-3.8c-0.2-1-0.5-1.7-0.9-2.3c-0.5-0.6-1.1-0.9-2-1.1c-0.9-0.2-2-0.4-3.5-0.4V81h20.9c6.1,0,10.9,1.1,14.2,3.4
	C160.4,86.7,162,89.8,162,93.8z M135.6,105.6h4.7c4.4,0,7.7-0.9,9.9-2.6c2.2-1.7,3.2-4.5,3.2-8.4c0-3.8-0.9-6.5-2.6-8.1
	c-1.7-1.6-4.4-2.4-8-2.4h-6.1c-0.8,0-1.1,0.4-1.1,1.1V105.6z M190,119.7c0,2.2,0.1,4,0.3,5.2c0.2,1.3,0.5,2.3,1,3
	c0.5,0.7,1.2,1.2,2.2,1.4c1,0.2,2.2,0.3,3.8,0.4v2.5h-21.5v-2.5c1.5-0.1,2.8-0.2,3.8-0.4c1-0.2,1.7-0.7,2.2-1.4
	c0.5-0.7,0.9-1.6,1.1-2.8c0.2-1.2,0.3-2.9,0.3-5v-27c0-1.9-0.1-3.4-0.2-4.6c-0.2-1.2-0.5-2.2-0.9-2.9c-0.5-0.7-1.1-1.2-2-1.5
	c-0.9-0.3-2-0.5-3.5-0.6V81h20.2v2.5c-1.4,0-2.6,0.2-3.4,0.5c-0.9,0.3-1.5,0.8-2,1.6c-0.5,0.7-0.8,1.7-0.9,3
	c-0.2,1.3-0.2,2.9-0.2,4.9V119.7z M261.4,93.7h-2.7c-0.1-1.9-0.5-3.5-0.9-4.8c-0.5-1.3-1.2-2.3-2.1-3c-0.9-0.7-2-1.3-3.4-1.6
	c-1.4-0.3-3-0.5-4.9-0.5c-1.6,0-3,0-4,0.1c-1,0.1-1.8,0.2-2.3,0.4c-0.5,0.2-0.9,0.4-1,0.6c-0.2,0.2-0.2,0.6-0.2,1v35.6
	c0,1.4,0.1,2.6,0.3,3.7c0.2,1,0.6,1.8,1.2,2.5c0.6,0.6,1.5,1.1,2.6,1.5c1.1,0.3,2.6,0.5,4.5,0.6v2.5h-25.1v-2.5
	c1.9-0.1,3.4-0.2,4.5-0.6c1.2-0.3,2-0.8,2.6-1.5c0.6-0.7,1-1.5,1.2-2.5c0.2-1,0.3-2.2,0.3-3.7V85.9c0-0.4-0.1-0.7-0.2-1
	c-0.2-0.2-0.5-0.5-0.9-0.6c-0.5-0.2-1.1-0.3-2-0.4c-0.8-0.1-2-0.1-3.4-0.1c-1.7,0-3.3,0.1-4.8,0.2c-1.5,0.1-2.8,0.5-3.9,1.1
	c-1.1,0.6-2,1.6-2.6,3c-0.7,1.3-1,3.2-1.1,5.5h-2.5V81h50.2L261.4,93.7z M303.8,113.7h-17.8c-0.8,1.8-1.4,3.4-1.9,4.8
	c-0.5,1.4-1,2.6-1.3,3.6c-0.3,1-0.6,1.9-0.7,2.6c-0.1,0.7-0.2,1.3-0.2,1.7c0,1.2,0.4,2.1,1.2,2.6c0.8,0.5,2.1,0.7,4,0.7v2.5h-16.2
	v-2.5c1-0.1,1.9-0.3,2.6-0.5c0.7-0.2,1.4-0.5,1.9-0.9c0.6-0.4,1-0.9,1.5-1.6c0.4-0.7,0.8-1.4,1.2-2.4L295.5,81h2.9l15.1,37.5
	c1,2.5,1.9,4.5,2.7,6c0.8,1.5,1.5,2.6,2.2,3.4c0.7,0.8,1.5,1.2,2.3,1.5c0.8,0.2,1.8,0.3,3,0.3v2.6h-21.7v-2.6c2.3,0,4-0.2,4.9-0.6
	c0.9-0.4,1.3-1.2,1.3-2.2c0-0.4,0-0.9-0.1-1.2c0-0.4-0.1-0.8-0.2-1.2c-0.1-0.4-0.3-0.9-0.5-1.5c-0.2-0.6-0.4-1.2-0.8-2L303.8,113.7z
	 M287.4,110.3h15.2l-7.4-19.6L287.4,110.3z M377.4,132.2h-43v-2.5c1.5-0.1,2.8-0.2,3.8-0.4c1-0.2,1.7-0.6,2.2-1.1
	c0.5-0.5,0.9-1.3,1.1-2.3c0.2-1,0.3-2.2,0.3-3.8v-31c0-1.6-0.1-2.8-0.2-3.8c-0.2-1-0.5-1.7-0.9-2.3c-0.5-0.6-1.1-0.9-2-1.1
	c-0.9-0.2-2-0.4-3.5-0.4V81h20.2v2.5c-1.4,0-2.6,0.2-3.4,0.4c-0.9,0.2-1.5,0.6-2,1.2c-0.5,0.6-0.8,1.4-0.9,2.4c-0.2,1-0.2,2.4-0.2,4
	v28.7c0,1.9,0.2,3.4,0.6,4.6c0.4,1.2,1,2.1,1.9,2.7c0.9,0.6,2.1,1.1,3.6,1.3c1.5,0.2,3.4,0.4,5.8,0.4c2.5,0,4.7-0.1,6.4-0.4
	c1.7-0.3,3.2-0.8,4.4-1.5c1.2-0.7,2.1-1.8,2.8-3.1c0.7-1.3,1.3-3,1.8-5.1h2.5L377.4,132.2z"/>
</svg>
