<?xml version="1.0" encoding="utf-8"?>
<!-- Generator: Adobe Illustrator 28.0.0, SVG Export Plug-In . SVG Version: 6.00 Build 0)  -->
<svg version="1.1" id="Layer_1" xmlns="http://www.w3.org/2000/svg" xmlns:xlink="http://www.w3.org/1999/xlink" x="0px" y="0px"
	 viewBox="0 0 2984.8 790" style="enable-background:new 0 0 2984.8 790;" xml:space="preserve">
<style type="text/css">
	.st0{fill:#FFFFFF;}
</style>
<g>
	<g>
		<g>
			<polygon class="st0" points="1102.3,270.4 1102.3,270.4 997.6,270.4 997.6,519.6 1051.6,519.6 1051.6,324.4 1067.1,324.4 
				1153.4,519.6 1212.4,519.6 			"/>
			<polygon class="st0" points="2044.8,519.6 2044.8,519.6 2098.8,519.6 2098.8,270.4 2044.8,270.4 			"/>
			<polygon class="st0" points="1322.5,270.4 1322.5,270.4 1322.5,270.4 1212.4,519.6 1271.5,519.6 1357.7,324.4 1373.2,324.4 
				1373.2,519.6 1427.2,519.6 1427.2,270.4 			"/>
			<path class="st0" d="M1668.7,270.4h-98.8l0,0l-110.1,249.2h59l35.9-81.2h129.2l35.9,81.2h59L1668.7,270.4L1668.7,270.4z
				 M1578.6,384.4l26.5-60h28.4l26.5,60H1578.6z"/>
			<polygon class="st0" points="1934.7,270.4 1810,270.4 1810,519.6 1864,519.6 1864,324.4 1899.5,324.4 1985.8,519.6 2044.8,519.6 
							"/>
			<polygon class="st0" points="2128.8,270.4 2128.8,324.4 2254.8,324.4 2254.8,519.6 2308.8,519.6 2308.8,324.4 2434.8,324.4 
				2434.8,270.4 			"/>
			<polygon class="st0" points="2518.8,270.4 2464.8,270.4 2464.8,519.6 2699.8,519.6 2699.8,465.6 2518.8,465.6 			"/>
			<polygon class="st0" points="2984.8,324.4 2984.8,270.4 2729.8,270.4 2729.8,519.6 2984.8,519.6 2984.8,465.6 2783.8,465.6 
				2783.8,418.4 2958.1,418.4 2958.1,364.4 2783.8,364.4 2783.8,324.4 			"/>
		</g>
	</g>
	<g>
		<path class="st0" d="M162.6,277L42.8,216c-9.4,18.4-17.3,37.7-23.7,57.4L147,314.8C151.2,301.8,156.4,289.1,162.6,277z"/>
		<path class="st0" d="M264.3,169.5l66.4,114.3c9.7-5.6,20.1-9.9,30.8-12.8l-34.3-127.6c8.7-2.3,17.6-4.3,26.6-5.7L332.7,4.9
			C312.3,8.1,292,13,272.4,19.4l41,125.8c-13.1,4.3-25.8,9.6-38,15.8L215.1,43.3c-18.3,9.4-36.1,20.3-52.7,32.5l79.3,108.6
			C248.9,179,256.5,174.1,264.3,169.5z"/>
		<path class="st0" d="M620.4,264.2l-114.3,66.4c5.6,9.7,10,20.1,12.9,30.8L646.6,327c2.4,8.7,4.3,17.6,5.7,26.5l132.8-21.1
			c-3.2-20.4-8.1-40.7-14.6-60.3l-125.7,41.1c-4.3-13.1-9.6-25.8-15.8-38l117.7-60.4c-9.4-18.3-20.3-36.1-32.5-52.7l-108.5,79.3
			C610.9,248.8,615.8,256.4,620.4,264.2z"/>
		<path class="st0" d="M573.8,42.7c-18.4-9.4-37.7-17.3-57.4-23.7l-41.3,127.9c12.9,4.2,25.6,9.4,37.8,15.6L573.8,42.7z"/>
		<path class="st0" d="M526,167.2l-67.1,116.5c9.7,5.6,18.7,12.5,26.6,20.4l188.2-188.9c-14.6-14.6-30.5-28.1-47.1-40.2L549,182.1
			C541.6,176.7,534,171.7,526,167.2z"/>
		<path class="st0" d="M167.2,263.8L283.6,331c5.6-9.7,12.5-18.7,20.4-26.7L115.3,116c-14.6,14.6-28.1,30.5-40.2,47.1l107,77.7
			C176.8,248.2,171.8,255.9,167.2,263.8z"/>
		<path class="st0" d="M435.7,135.4L456,4.7C435.9,1.6,415.4,0,394.9,0h-0.3v266.6h0.3c11.2,0,22.4,1.4,33.1,4.3L462.5,141
			C453.7,138.6,444.8,136.8,435.7,135.4z"/>
		<path class="st0" d="M270.9,361.9L141,327.3c-2.3,8.8-4.2,17.8-5.6,26.8L4.7,333.7C1.6,353.8,0,374.5,0,395h266.6
			C266.6,383.7,268.1,372.6,270.9,361.9z"/>
		<path class="st0" d="M627.4,513l119.8,61c9.4-18.4,17.3-37.7,23.7-57.4L643,475.2C638.8,488.2,633.6,500.9,627.4,513z"/>
		<path class="st0" d="M525.6,620.4l-66.3-114.3c-9.7,5.6-20.1,9.9-30.8,12.8l34.3,127.6c-8.7,2.3-17.6,4.3-26.6,5.7L457.3,785
			c20.4-3.2,40.7-8.1,60.3-14.5l-41-125.8c13.1-4.3,25.8-9.6,38-15.8l60.3,117.7c18.3-9.4,36.1-20.3,52.7-32.5l-79.2-108.6
			C541.1,611,533.5,615.9,525.6,620.4z"/>
		<path class="st0" d="M169.6,525.8l114.3-66.4c-5.6-9.7-10-20.1-12.9-30.8L143.4,463c-2.4-8.7-4.3-17.6-5.7-26.5L4.9,457.6
			c3.2,20.4,8.1,40.7,14.6,60.3l125.7-41.1c4.3,13,9.6,25.8,15.8,38L43.3,575.2c9.4,18.3,20.3,36.1,32.5,52.7l108.5-79.3
			C179.1,541.2,174.2,533.6,169.6,525.8z"/>
		<path class="st0" d="M216.2,747.3c18.4,9.4,37.7,17.3,57.4,23.7l41.3-127.9c-12.9-4.2-25.6-9.4-37.8-15.6L216.2,747.3z"/>
		<path class="st0" d="M263.9,622.8L331,506.3c-9.7-5.6-18.7-12.5-26.6-20.4L116.2,674.8c14.6,14.6,30.5,28.1,47.1,40.2l77.6-107.1
			C248.3,613.2,256,618.2,263.9,622.8z"/>
		<path class="st0" d="M622.7,526.2L506.3,459c-5.6,9.7-12.5,18.7-20.4,26.7L674.7,674c14.6-14.6,28.1-30.5,40.2-47.1l-107-77.7
			C613.2,541.7,618.2,534.1,622.7,526.2z"/>
		<path class="st0" d="M361.9,519.1L327.4,649c8.8,2.3,17.8,4.2,26.8,5.6l-20.3,130.7c20.1,3.1,40.6,4.7,61.1,4.7h0.3V523.4H395
			C383.8,523.4,372.6,521.9,361.9,519.1z"/>
		<path class="st0" d="M523.4,395c0,11.3-1.4,22.4-4.3,33.1L649,462.7c2.3-8.8,4.2-17.8,5.6-26.8l130.7,20.4
			c3.1-20.1,4.7-40.8,4.7-61.3H523.4z"/>
	</g>
</g>
</svg>
