<?xml version="1.0" encoding="utf-8"?>
<!-- Generator: Adobe Illustrator 28.0.0, SVG Export Plug-In . SVG Version: 6.00 Build 0)  -->
<svg version="1.1" id="Layer_1" xmlns="http://www.w3.org/2000/svg" xmlns:xlink="http://www.w3.org/1999/xlink" x="0px" y="0px"
	 viewBox="0 0 521.54 60.99" style="enable-background:new 0 0 521.54 60.99;" xml:space="preserve">
<style type="text/css">
	.st0{fill:#FFFFFF;}
</style>
<path class="st0" d="M225.38,0h7.4L206.8,60.99h-7.4L173.42,0h7.4l22.28,52.3L225.38,0z M127.36,0l27.11,60.99h-7.4l-7.03-15.81
	H107.1l-7.03,15.81h-7.4L119.78,0h0.18h7.22H127.36z M137.2,38.78L123.57,8.12l-13.63,30.66H137.2z M29.49,32.83L7.4,0H0v1.49v59.5
	h7.4v-48.5l17.89,26.59l4.2,6.24l4.2-6.24l17.89-26.59v48.5h7.4V1.49V0h-7.4L29.49,32.83z M440.25,4.7l2.22,6.4l11.3-3.92v53.81
	h6.78V0h-6.78L440.25,4.7z M514.76,0l-13.52,4.7l2.22,6.4l11.3-3.92v53.81h6.78V0H514.76z M390.91,49.7L352.25,0h-6.78v1.29v59.7
	h6.78V10l38.66,49.7l1,1.29h5.78v-2.57V0h-6.78V49.7z M265.66,0v6.27v20.99v6.27v21.19v6.27h6.78h37.27v-6.27h-37.27V33.53h33.27
	v-6.27h-33.27V6.27h37.27V0h-37.27H265.66z"/>
</svg>
