<svg width="758" height="68" viewBox="0 0 758 68" fill="none" xmlns="http://www.w3.org/2000/svg">
<path d="M64.2358 2.2627H2.76452C2.38538 2.2627 2.02177 2.4133 1.75366 2.68141C1.48558 2.9495 1.33496 3.31311 1.33496 3.69227V65.1635C1.33496 65.5428 1.48558 65.9063 1.75366 66.1745C2.02177 66.4425 2.38538 66.5931 2.76452 66.5931H64.2358C64.6149 66.5931 64.9786 66.4425 65.2466 66.1745C65.5147 65.9063 65.6654 65.5428 65.6654 65.1635V3.69227C65.6654 3.31311 65.5147 2.9495 65.2466 2.68141C64.9786 2.4133 64.6149 2.2627 64.2358 2.2627ZM44.2219 43.7201C44.2219 44.0992 44.0713 44.4629 43.8032 44.7309C43.535 44.999 43.1715 45.1496 42.7924 45.1496H24.2079C23.8288 45.1496 23.4653 44.999 23.1971 44.7309C22.9291 44.4629 22.7785 44.0992 22.7785 43.7201V25.1358C22.7785 24.7565 22.9291 24.393 23.1971 24.1248C23.4653 23.8568 23.8288 23.7062 24.2079 23.7062H42.7924C43.1715 23.7062 43.535 23.8568 43.8032 24.1248C44.0713 24.393 44.2219 24.7565 44.2219 25.1358V43.7201Z" fill="white"/>
<path d="M192.936 23.7051H174.352C173.563 23.7051 172.923 24.3452 172.923 25.1347V43.719C172.923 44.5085 173.563 45.1486 174.352 45.1486H192.936C193.726 45.1486 194.366 44.5085 194.366 43.719V25.1347C194.366 24.3452 193.726 23.7051 192.936 23.7051Z" fill="white"/>
<path d="M171.483 2.26318H152.897C152.108 2.26318 151.468 2.90323 151.468 3.69275V22.2771C151.468 23.0666 152.108 23.7066 152.897 23.7066H171.483C172.272 23.7066 172.912 23.0666 172.912 22.2771V3.69275C172.912 2.90323 172.272 2.26318 171.483 2.26318Z" fill="white"/>
<path d="M214.372 2.26318H195.788C194.998 2.26318 194.358 2.90323 194.358 3.69275V22.2771C194.358 23.0666 194.998 23.7066 195.788 23.7066H214.372C215.161 23.7066 215.801 23.0666 215.801 22.2771V3.69275C215.801 2.90323 215.161 2.26318 214.372 2.26318Z" fill="white"/>
<path d="M171.483 45.1489H152.897C152.108 45.1489 151.468 45.7889 151.468 46.5786V65.1628C151.468 65.9523 152.108 66.5925 152.897 66.5925H171.483C172.272 66.5925 172.912 65.9523 172.912 65.1628V46.5786C172.912 45.7889 172.272 45.1489 171.483 45.1489Z" fill="white"/>
<path d="M214.372 45.1489H195.788C194.998 45.1489 194.358 45.7889 194.358 46.5786V65.1628C194.358 65.9523 194.998 66.5925 195.788 66.5925H214.372C215.161 66.5925 215.801 65.9523 215.801 65.1628V46.5786C215.801 45.7889 215.161 45.1489 214.372 45.1489Z" fill="white"/>
<path d="M139.288 2.26318H120.704C119.914 2.26318 119.274 2.90323 119.274 3.69275V22.2771C119.274 23.0666 119.914 23.7066 120.704 23.7066H139.288C140.078 23.7066 140.718 23.0666 140.718 22.2771V3.69275C140.718 2.90323 140.078 2.26318 139.288 2.26318Z" fill="white"/>
<path d="M139.288 45.1489H120.704C119.914 45.1489 119.274 45.7889 119.274 46.5786V65.1628C119.274 65.9523 119.914 66.5925 120.704 66.5925H139.288C140.078 66.5925 140.718 65.9523 140.718 65.1628V46.5786C140.718 45.7889 140.078 45.1489 139.288 45.1489Z" fill="white"/>
<path d="M119.273 25.1201C119.273 24.741 119.122 24.3774 118.854 24.1093C118.586 23.8411 118.222 23.6906 117.843 23.6906H97.8292V3.69275C97.8292 3.3136 97.6786 2.94998 97.4105 2.68189C97.1423 2.41381 96.7788 2.26318 96.3997 2.26318H77.8152C77.4361 2.26318 77.0726 2.41381 76.8044 2.68189C76.5363 2.94998 76.3857 3.3136 76.3857 3.69275V65.1318C76.3857 65.5111 76.5363 65.8746 76.8044 66.1428C77.0726 66.4108 77.4361 66.5614 77.8152 66.5614H96.3997C96.7788 66.5614 97.1423 66.4108 97.4105 66.1428C97.6786 65.8746 97.8292 65.5111 97.8292 65.1318V45.134H117.843C118.222 45.134 118.586 44.9834 118.854 44.7154C119.122 44.4472 119.273 44.0837 119.273 43.7044V25.1201Z" fill="white"/>
<path d="M279.485 66.0497L302.386 2.06931H281.713L269.505 39.3169L257.475 2.06931H236L258.901 66.0497H279.485Z" fill="white"/>
<path d="M311.902 2.06931V66.0497H360.021V49.1189H331.773V42.0793H354.941V25.5941H331.773V19H360.021V2.06931H311.902Z" fill="white"/>
<path d="M431.492 2.06931H412.155V32.3664L391.66 2.06931H372.056V66.0497H391.393V33.5248L414.027 66.0497H431.492V2.06931Z" fill="white"/>
<path d="M498.657 19V2.06931H442.429V19H460.429V66.0497H480.657V19H498.657Z" fill="white"/>
<path d="M537.665 67.119C555.486 67.119 566.358 57.2279 566.358 39.5842V2.06931H546.13V39.0496C546.13 46.2674 543.011 49.5645 537.665 49.5645C532.318 49.5645 529.199 46.2674 529.199 39.0496V2.06931H508.971V39.5842C508.971 57.2279 519.843 67.119 537.665 67.119Z" fill="white"/>
<path d="M599.027 46.4456H602.235L613.463 66.0497H636.632L622.641 43.3268C630.127 39.6734 634.404 32.9011 634.404 24.2575C634.404 10.1782 624.334 2.06931 607.938 2.06931H578.8V66.0497H599.027V46.4456ZM599.027 30.7624V18.8218H606.869C612.127 18.8218 614.443 21.2278 614.443 24.8812C614.443 28.3565 612.127 30.7624 606.869 30.7624H599.027Z" fill="white"/>
<path d="M645.916 2.06931V66.0497H694.035V49.1189H665.787V42.0793H688.956V25.5941H665.787V19H694.035V2.06931H645.916Z" fill="white"/>
<path d="M701.327 57.7625C706.94 63.6437 719.683 67.119 729.842 67.119C745.436 67.119 758 59.1883 758 44.7526C758 30.3169 745.436 27.3763 735.723 25.505C728.327 24.0793 724.851 23.6337 724.851 20.9604C724.851 18.3763 727.436 17.3961 731.089 17.3961C736.881 17.3961 742.941 19.5347 747.396 23.8119L757.287 10C751.851 5.00991 742.941 1 731.624 1C716.921 1 704.98 9.28715 704.98 23.01C704.98 36.2872 715.228 40.0298 724.406 41.6338C734.386 43.4159 737.95 43.7724 737.95 46.8021C737.95 49.3862 735.188 50.7229 730.733 50.7229C724.584 50.7229 717.099 48.3169 711.218 42.614L701.327 57.7625Z" fill="white"/>
</svg>
