<?xml version="1.0" encoding="utf-8"?>
<!-- Generator: Adobe Illustrator 28.0.0, SVG Export Plug-In . SVG Version: 6.00 Build 0)  -->
<svg version="1.1" id="Layer_1" xmlns="http://www.w3.org/2000/svg" xmlns:xlink="http://www.w3.org/1999/xlink" x="0px" y="0px"
	 viewBox="0 0 1320 310" style="enable-background:new 0 0 1320 310;" xml:space="preserve">
<style type="text/css">
	.st0{fill:url(#SVGID_1_);}
	.st1{fill:#EE8724;}
	.st2{fill:url(#SVGID_00000135675820159821070140000017037719868727668924_);}
	.st3{fill:#FFFFFF;}
</style>
<g>
	
		<linearGradient id="SVGID_1_" gradientUnits="userSpaceOnUse" x1="36.2526" y1="-199.3627" x2="273.5772" y2="-398.5018" gradientTransform="matrix(1 0 0 -1 0 -144)">
		<stop  offset="0" style="stop-color:#EA2027"/>
		<stop  offset="0.1104" style="stop-color:#EB3226"/>
		<stop  offset="0.3718" style="stop-color:#EC5725"/>
		<stop  offset="0.6154" style="stop-color:#ED7125"/>
		<stop  offset="0.8322" style="stop-color:#EE8124"/>
		<stop  offset="1" style="stop-color:#EE8724"/>
	</linearGradient>
	<path class="st0" d="M297.8,94.7c-3.9-9.2-8.7-18-14.3-26.3c-5.5-8.2-11.9-15.9-18.9-22.9s-14.7-13.4-22.9-18.9
		c-8.3-5.6-17.1-10.4-26.3-14.3C196.2,4.1,175.9,0,155,0s-41.2,4.1-60.3,12.2c-9.2,3.9-18,8.7-26.3,14.3c-8.3,5.5-16,11.9-23,18.9
		S32,60.1,26.5,68.3c-5.6,8.3-10.4,17.1-14.3,26.3C4.1,113.8,0,134.1,0,155s4.1,41.2,12.2,60.3c3.9,9.2,8.7,18,14.3,26.3
		c5.5,8.2,11.9,15.9,18.9,22.9c0.1,0.1,0.2,0.2,0.3,0.3l0.1,0.1c6.9,6.9,14.5,13.1,22.5,18.5c8.3,5.6,17.1,10.4,26.3,14.3
		c19.1,8.1,39.4,12.2,60.3,12.2s41.2-4.1,60.3-12.2c9.2-3.9,18-8.7,26.3-14.3c8.2-5.5,15.9-11.9,22.9-18.9s13.4-14.7,18.9-22.9
		c5.6-8.3,10.4-17.1,14.3-26.3c8.1-19.1,12.2-39.4,12.2-60.3C310,134.1,305.9,113.8,297.8,94.7z M285.9,210.3
		c-3.6,8.4-8,16.5-13.1,24.1c-5.1,7.5-10.9,14.6-17.3,21c-6.4,6.4-13.5,12.3-21,17.3c-7.6,5.1-15.7,9.5-24.1,13.1
		c-17.5,7.4-36.1,11.2-55.3,11.2s-37.8-3.8-55.3-11.2c-8.4-3.6-16.5-8-24.1-13.1c-6-4.1-11.8-8.6-17.1-13.6l96.6-169.5L214,190.3
		l5.6,9.7c2.7,4.6,7,7.9,12.1,9.3c1.7,0.5,3.5,0.7,5.2,0.7c3.5,0,6.9-0.9,10-2.7c9.5-5.5,12.8-17.8,7.3-27.3s-17.8-12.8-27.3-7.3
		l-6.1,3.5l-57.2-97.8c-1.8-3-5.1-4.9-8.6-4.9l0,0c-3.5,0-6.8,1.9-8.6,5L49,249.6c-4.3-4.8-8.2-9.9-11.8-15.2
		c-5.1-7.6-9.5-15.7-13.1-24.1C16.7,192.8,13,174.2,13,155s3.8-37.8,11.2-55.3c3.6-8.4,8-16.5,13.1-24.1c5.1-7.5,10.9-14.6,17.3-21
		s13.5-12.3,21-17.3c7.6-5.1,15.7-9.5,24.1-13.1C117.2,16.7,135.8,13,155,13s37.8,3.8,55.3,11.2c8.4,3.6,16.5,8,24.1,13.1
		c7.5,5.1,14.6,10.9,21,17.3c6.4,6.4,12.3,13.5,17.3,21c5.1,7.6,9.5,15.7,13.1,24.1c7.4,17.5,11.2,36.1,11.2,55.3
		S293.3,192.8,285.9,210.3z M227.4,187.5l6.1-3.5c3.4-1.9,7.7-0.8,9.6,2.6c0.9,1.6,1.2,3.5,0.7,5.3s-1.6,3.3-3.3,4.3
		c-1.6,0.9-3.5,1.2-5.3,0.7s-3.3-1.6-4.3-3.3L227.4,187.5z"/>
</g>
<g>
	<g>
		<path class="st1" d="M1295.3,210.2c-7.2,0-14.3-3.1-19.2-9.1l-15.5-19.2l19.2-15.5c5.1-4.1,11.6-6.1,18.1-5.4
			c6.6,0.7,12.5,3.9,16.6,9s6.1,11.6,5.4,18.1c-0.7,6.6-3.9,12.5-9,16.6C1306.3,208.4,1300.8,210.2,1295.3,210.2z M1274.5,183.3
			l9.3,11.5c5.1,6.4,14.5,7.3,20.9,2.2s7.3-14.5,2.2-20.9c-5.1-6.4-14.5-7.3-20.9-2.2L1274.5,183.3z"/>
	</g>
</g>
<g>
	<g>
		
			<linearGradient id="SVGID_00000049190848562958953860000016857966535004829615_" gradientUnits="userSpaceOnUse" x1="582.3176" y1="902.6316" x2="696.4379" y2="998.3899" gradientTransform="matrix(1 0 0 1 0 -768)">
			<stop  offset="0" style="stop-color:#EA2027"/>
			<stop  offset="0.1104" style="stop-color:#EB3226"/>
			<stop  offset="0.3718" style="stop-color:#EC5725"/>
			<stop  offset="0.6154" style="stop-color:#ED7125"/>
			<stop  offset="0.8322" style="stop-color:#EE8124"/>
			<stop  offset="1" style="stop-color:#EE8724"/>
		</linearGradient>
		<path style="fill:url(#SVGID_00000049190848562958953860000016857966535004829615_);" d="M740.3,159.2
			c-5.1-8.8-16.4-11.9-25.2-6.8l-5.7,3.3l-52.9-90.4c-1.6-2.8-4.7-4.5-7.9-4.5h-0.1c-3.3,0-6.3,1.8-7.9,4.6l-94.1,165
			c-1.6,2.9-0.6,6.5,2.2,8.2c0.9,0.5,2,0.8,3,0.8c2.1,0,4.1-1.1,5.2-3l91.7-160.8l54.5,93.1l5.2,9.1c2.5,4.3,6.5,7.3,11.2,8.6
			c1.6,0.4,3.2,0.6,4.8,0.6c3.2,0,6.4-0.8,9.2-2.5c4.3-2.5,7.3-6.5,8.6-11.2C743.4,168.4,742.7,163.4,740.3,159.2z M730.5,170.1
			c-0.4,1.7-1.5,3.1-3,3.9c-1.5,0.9-3.3,1.1-4.9,0.6c-1.7-0.4-3.1-1.5-3.9-3l-3.2-5.6l5.6-3.2c1.5-0.9,3.3-1.1,4.9-0.6
			c1.7,0.4,3.1,1.5,3.9,3C730.7,166.6,731,168.4,730.5,170.1z"/>
	</g>
</g>
<g>
	<path class="st3" d="M500.5,103.7c-5.5-9.7-13.1-17.3-22.7-22.9s-20.5-8.4-32.7-8.4c-9.4,0-18.2,1.8-26.2,5.3s-14.8,8.5-20.2,15.1
		c-1.8,2.2-3.5,4.6-4.8,7V75h-14.1v174.3h14.1v-77.1c1.4,2.4,2.9,4.7,4.7,6.9c5.4,6.6,12.1,11.7,20.1,15.4s16.9,5.5,26.5,5.5
		c12.2,0,23.1-2.8,32.7-8.4s17.2-13.2,22.7-22.8s8.3-20.4,8.3-32.5S506.1,113.3,500.5,103.7z M487.7,162.6
		c-4.3,7.7-10.4,13.8-18.2,18.2c-7.8,4.4-16.7,6.6-26.9,6.6c-9.6,0-18.2-2.2-25.6-6.6c-7.5-4.4-13.3-10.4-17.5-18
		s-6.2-16.5-6.2-26.5c0-10.2,2.1-19.1,6.4-26.7c4.2-7.6,10.1-13.7,17.6-18c7.5-4.4,16.1-6.6,25.9-6.6c10,0,18.8,2.2,26.5,6.6
		s13.7,10.4,18,18s6.5,16.5,6.5,26.5C494.2,146,492,154.9,487.7,162.6z"/>
</g>
<g>
	<path class="st3" d="M933.1,103.7c-5.5-9.7-13.1-17.3-22.7-22.9c-9.6-5.6-20.5-8.4-32.7-8.4c-9.4,0-18.2,1.8-26.2,5.3
		s-14.8,8.5-20.2,15.1c-1.8,2.2-3.5,4.6-4.8,7V75h-14.1v174.3h14.1v-77.1c1.4,2.4,2.9,4.7,4.7,6.9c5.4,6.6,12.1,11.7,20.1,15.4
		s16.9,5.5,26.5,5.5c12.2,0,23.1-2.8,32.7-8.4c9.6-5.6,17.2-13.2,22.7-22.8s8.3-20.4,8.3-32.5S938.7,113.3,933.1,103.7z
		 M920.2,162.6c-4.3,7.7-10.4,13.8-18.2,18.2s-16.7,6.6-26.9,6.6c-9.6,0-18.1-2.2-25.6-6.6c-7.5-4.4-13.3-10.4-17.5-18
		s-6.2-16.5-6.2-26.5c0-10.2,2.1-19.1,6.4-26.7c4.2-7.6,10.1-13.7,17.6-18c7.5-4.4,16.1-6.6,25.9-6.6c10,0,18.8,2.2,26.5,6.6
		s13.7,10.4,18,18s6.5,16.5,6.5,26.5C926.7,146,924.6,154.9,920.2,162.6z"/>
	<path class="st3" d="M1118.1,100.5c-5.1-8.8-12.2-15.7-21.2-20.7c-9.1-5-19.4-7.5-31-7.5c-12.4,0-23.6,2.8-33.7,8.4
		s-18,13.2-23.7,22.8s-8.6,20.4-8.6,32.5s3,23,8.9,32.7s13.9,17.3,24.1,22.9c10.2,5.6,21.7,8.4,34.7,8.4c10.3,0,20-1.9,28.8-5.7
		c8.9-3.8,16.4-9,22.5-15.7l-9.4-8.7c-4.8,5.8-10.8,10.1-17.9,13s-14.8,4.4-23.1,4.4c-10.9,0-20.4-2.2-28.6-6.5
		c-8.1-4.3-14.5-10.4-19-18.2c-3.7-6.3-5.9-13.6-6.6-21.7h110.4c0.4-2.3,0.6-4.2,0.8-5.9c0.2-1.7,0.3-3,0.3-4.1
		C1125.8,119.5,1123.2,109.3,1118.1,100.5z M1020.6,108.9c4.3-7.5,10.4-13.5,18.2-17.8c7.8-4.3,16.7-6.5,26.9-6.5
		c9.8,0,18.2,2,25.2,6s12.4,9.7,16.1,17c3.2,6.4,4.9,13.6,5,21.7h-97.6C1015,121.8,1017.1,115,1020.6,108.9z"/>
	<path class="st3" d="M1276.3,85.8l-9.4,9.5c-3.5-3.7-7.3-6.3-11.4-7.9s-8.9-2.4-14.4-2.4c-10.5,0-19.1,3.4-25.8,10.1
		c-6.7,6.8-10,16.6-10,29.4v72.9h-14.1V75h14.1v17.7c1.6-2.7,3.4-5.1,5.5-7.3c8.3-8.7,19.2-13,32.7-13c6.3,0,12.1,1,17.6,3.2
		C1266.6,77.6,1271.7,81,1276.3,85.8z"/>
</g>
</svg>
