<svg width="699" height="285" xmlns="http://www.w3.org/2000/svg" xmlns:xlink="http://www.w3.org/1999/xlink" overflow="hidden"><defs><clipPath id="clip0"><rect x="465" y="217" width="699" height="285"/></clipPath><clipPath id="clip1"><rect x="466" y="218" width="697" height="284"/></clipPath><clipPath id="clip2"><rect x="466" y="218" width="697" height="285"/></clipPath><clipPath id="clip3"><rect x="117" y="218" width="1046" height="285"/></clipPath><linearGradient x1="116.864" y1="200.155" x2="173.976" y2="14.7488" gradientUnits="userSpaceOnUse" spreadMethod="pad" id="fill4"><stop offset="0" stop-color="#904A99" stop-opacity="1"/><stop offset="1" stop-color="#422F8E" stop-opacity="1"/></linearGradient><linearGradient x1="137.323" y1="-24.7939" x2="26.6076" y2="171.046" gradientUnits="userSpaceOnUse" spreadMethod="pad" id="fill5"><stop offset="0" stop-color="#F1B92C" stop-opacity="1"/><stop offset="1" stop-color="#ED7300" stop-opacity="1"/></linearGradient><linearGradient x1="139.655" y1="10.1647" x2="10.7826" y2="240.963" gradientUnits="userSpaceOnUse" spreadMethod="pad" id="fill6"><stop offset="0" stop-color="#F1B92C" stop-opacity="1"/><stop offset="1" stop-color="#ED7300" stop-opacity="1"/></linearGradient></defs><g clip-path="url(#clip0)" transform="translate(-465 -217)"><g clip-path="url(#clip1)"><g clip-path="url(#clip2)"><g clip-path="url(#clip3)"><path d="M194.943 38.5162C183.622 55.567 172.272 72.5979 161.2 89.8081L161.2 89.8081C158.33 94.2626 156.825 94.4719 153.836 89.9077 145.694 77.4111 136.825 65.3729 128.922 52.7169 126.541 48.9101 124.268 47.9136 120.232 47.9236 80.331 48.0033 40.4229 48.0033 0.508235 47.9236 6.57716 60.1909 15.247 70.7543 22.6414 82.2145 25.5413 86.6989 27.8034 91.7613 32.2679 95.1097 51.7503 95.0499 71.2326 95.1097 90.7149 94.8306 94.5117 94.8306 96.0165 96.9034 97.6907 99.4645 106.992 113.257 116.293 127.035 125.594 140.801 125.743 143.452 123.94 145.196 122.604 147.139 102.74 176.856 82.8655 206.569 62.9813 236.279 71.99 250.012 81.0086 263.744 90.0373 277.476 91.2132 279.27 92.7778 280.855 93.0269 283.127 96.0165 283.067 96.6144 280.306 97.8601 278.473 107.208 264.8 116.446 251.048 125.763 237.326 135.27 220.863 146.691 205.706 157.334 189.033 166.591 202.786 175.401 215.82 184.15 228.895 194.96 245.059 205.749 261.236 216.518 277.426 217.704 279.21 219.268 280.805 219.508 283.077 221.71 283.286 222.427 281.542 223.374 280.087 242.807 251.061 262.256 222.042 281.722 193.03 283.416 190.508 283.575 188.575 281.831 186.054 272.055 171.604 262.379 157.055 252.613 142.505 243.803 155.58 234.954 168.634 226.214 181.749 220.883 189.721 220.873 189.841 215.611 182.048 207.519 170.089 199.557 157.991 191.525 145.973 190.698 144.717 189.532 143.601 189.9 141.897L204.151 118.977C219.637 96.0564 235.143 73.136 250.669 50.2156 252.383 47.7043 251.716 46.07 250.251 43.9075 242.548 32.537 235.074 20.9871 227.33 9.69632 225.218 6.68678 224.012 2.69065 220.235 0.88692 211.765 13.4333 203.294 25.91 194.943 38.5162Z" fill="url(#fill4)" fill-rule="evenodd" transform="matrix(1.00328 0 0 1 117.254 218.133)"/><path d="M28.1921 4.07584C19.6219 17.1305 10.8025 29.9859 2.21232 43.0405L2.21232 43.0405C1.30547 44.4058-0.996539 45.5717 0.538131 47.9036 40.4528 47.9036 80.3609 47.9036 120.262 47.9036 124.248 47.9036 126.57 48.9002 128.952 52.697 136.825 65.353 145.694 77.3912 153.866 89.8878 156.855 94.452 158.36 94.2427 161.23 89.7882 172.302 72.5779 183.652 55.5471 194.973 38.4963 203.294 25.91 211.765 13.4333 220.235 0.88692 218.7-0.269065 216.907 0.0996539 215.252 0.0996539 155.294 0.0797231 95.3688 0.0465051 35.4768 0 31.969 0 30.0556 1.2656 28.212 4.07584Z" fill="url(#fill5)" fill-rule="evenodd" transform="matrix(1.00328 0 0 1 117.254 218.133)"/><path d="M90.685 94.8306C71.2027 95.0997 51.7204 95.0499 32.238 95.1097L32.238 95.1097C32.1882 97.7605 34.2311 99.3749 35.4868 101.298 43.4591 113.416 51.541 125.534 59.8123 137.492 61.9947 140.642 62.1242 142.934 59.892 146.132 52.5674 156.636 45.5119 167.319 38.4465 178.022 25.6841 197.335 12.9384 216.687 0.209273 236.08L63.0909 236.269C82.9752 206.566 102.849 176.856 122.714 147.139 124.019 145.146 125.823 143.452 125.703 140.801 116.402 127.029 107.101 113.25 97.8003 99.4645 96.0962 96.9333 94.6014 94.8306 90.9142 94.8306L90.685 94.8306Z" fill="url(#fill6)" fill-rule="evenodd" transform="matrix(1.00328 0 0 1 117.254 218.133)"/><path d="M418.437 49.6177C432.986 49.6177 447.546 49.7373 462.095 49.5379 465.912 49.4881 467.307 50.2953 467.357 54.5206 467.556 71.8206 467.726 71.8106 450.416 71.8106 431.302 71.8106 412.178 71.9302 393.075 71.7408 387.325 71.7408 383.827 73.2356 383.956 79.7131 384.086 86.1906 385.601 87.5758 392.925 87.5958 412.906 87.5958 432.887 87.5958 452.877 87.5958 463.231 87.5958 467.158 91.4823 467.177 101.677 467.177 120.571 467.177 139.466 467.177 158.36 467.177 167.757 463.082 171.863 453.634 171.883 424.735 171.953 395.835 171.883 366.936 171.983 363.149 171.983 361.684 171.235 361.624 167 361.365 149.71 361.196 149.71 378.615 149.71 397.509 149.71 416.407 149.71 435.308 149.71 443.44 149.71 444.925 148.265 444.975 140.412 444.975 133.028 444.805 125.634 445.044 118.259 445.244 112.101 442.463 109.629 436.464 109.659 416.264 109.759 396.064 109.659 375.865 109.659 365.431 109.659 361.783 106.002 361.744 95.588 361.744 84.7257 361.684 73.8734 361.744 63.0112 361.803 53.6238 365.839 49.6476 375.346 49.6077 389.766 49.5778 404.106 49.6177 418.437 49.6177Z" fill="#472F8E" fill-rule="evenodd" fill-opacity="1" transform="matrix(1.00328 0 0 1 117.254 218.133)"/><path d="M759.861 109.699 735.794 109.699C732.596 109.699 729.327 109.898 729.207 114.104 729.088 118.309 732.297 118.668 735.545 118.668 751.151 118.668 766.764 118.668 782.383 118.668 785.661 118.668 788.93 118.349 789.049 114.333 789.169 110.317 785.9 109.699 782.632 109.699ZM759.193 87.516C772.009 87.516 784.824 87.4563 797.64 87.516 807.416 87.5758 811.402 91.6317 811.452 101.468 811.452 109.719 811.452 117.97 811.452 126.222 811.452 136.994 807.705 140.801 797.092 140.821 777.32 140.821 757.559 140.771 737.797 140.881 734.419 140.881 729.357 139.336 729.327 145.056 729.327 151.115 734.559 149.63 738.176 149.67 749.905 149.81 761.635 149.86 773.354 149.67 777.231 149.59 778.546 150.667 778.616 154.723 778.915 171.923 779.064 171.923 762.093 171.923 748.142 171.923 734.29 171.983 720.398 171.923 710.851 171.863 706.775 167.937 706.725 158.569 706.593 139.456 706.593 120.349 706.725 101.248 706.785 91.4524 710.821 87.6157 720.777 87.5659 733.572 87.4662 746.408 87.516 759.193 87.516Z" fill="#472F8E" fill-rule="evenodd" fill-opacity="1" transform="matrix(1.00328 0 0 1 117.254 218.133)"/><path d="M529.77 109.699C521.957 109.699 514.151 109.699 506.351 109.699 503.023 109.699 499.954 110.357 500.043 114.443 500.123 118.19 503.033 118.658 506.112 118.658 521.944 118.658 537.776 118.658 553.607 118.658 556.906 118.658 559.995 118.249 559.885 114.024 559.786 110.227 556.816 109.729 553.836 109.719 545.864 109.719 537.792 109.719 529.77 109.719ZM568.326 87.536C578.292 87.536 582.178 91.4424 582.278 101.248 582.324 109.938 582.324 118.625 582.278 127.308 582.208 136.914 578.431 140.781 568.904 140.811 548.485 140.871 528.046 140.811 507.657 140.811 504.169 140.811 499.924 140.323 500.143 145.475 500.322 149.999 504.318 149.68 507.577 149.69 519.954 149.69 532.341 149.83 544.718 149.63 548.435 149.571 549.412 150.746 549.492 154.414 549.9 171.883 550.02 171.883 532.66 171.883 518.978 171.883 505.285 171.933 491.603 171.883 481.637 171.833 477.721 167.897 477.701 158.111 477.654 138.997 477.654 119.887 477.701 100.78 477.701 91.8111 481.817 87.6257 490.815 87.536 503.82 87.4264 555.511 87.4662 568.326 87.536Z" fill="#472F8E" fill-rule="evenodd" fill-opacity="1" transform="matrix(1.00328 0 0 1 117.254 218.133)"/><path d="M937.285 49.6177C944.848 49.6177 951.107 49.7771 957.355 49.5479 960.285 49.4383 961.56 51.0328 962.965 53.0757 969.862 63.0809 976.807 73.0463 983.803 82.9718 988.218 89.2201 991.327 89.2401 995.762 83.0316 1002.54 73.4648 1009.36 63.9379 1015.8 54.132 1018.12 50.6142 1020.64 49.2091 1024.77 49.4981 1030.16 49.8668 1035.58 49.5878 1042.15 49.5878 1039.16 53.9725 1036.71 57.6697 1034.18 61.317 1028.12 70.0567 1022.22 78.886 1015.87 87.4363 1012.94 91.4225 1012.69 94.9303 1014.48 99.4745 1022.9 120.83 1031.03 142.326 1039.25 163.751 1040.17 166.143 1040.95 168.594 1042.11 171.863 1034.91 171.863 1028.29 171.773 1021.68 171.863 1018.26 171.933 1018.12 169.242 1017.32 167.169 1011.16 151.225 1005.03 135.247 998.921 119.236 997.276 114.931 995.841 110.446 989.952 110.436 984.062 110.426 982.508 114.572 980.823 119.017 974.784 135.021 968.506 150.906 962.547 166.99 961.232 170.538 959.557 172.272 955.571 171.973 951.241 171.609 946.887 171.609 942.556 171.973 937.683 172.381 937.783 170.508 939.228 166.811 947.888 144.608 956.289 122.315 965.028 100.142 967.021 95.1595 966.712 91.3627 963.474 86.948 954.684 75.0792 946.503 62.8617 937.285 49.6177Z" fill="#472F8E" fill-rule="evenodd" fill-opacity="1" transform="matrix(1.00328 0 0 1 117.254 218.133)"/><path d="M874.024 87.5758C886.83 87.5758 899.625 87.5758 912.431 87.5758 922.396 87.5758 926.273 91.3926 926.303 101.298 926.353 122.993 926.233 144.687 926.402 166.382 926.402 170.428 925.605 171.993 921.101 172.013 904.08 172.082 904.08 172.262 904.08 155.39 904.08 142.814 903.931 130.228 904.15 117.651 904.239 112.081 901.868 109.679 896.456 109.679 881.488 109.679 866.517 109.679 851.542 109.679 846.032 109.679 843.849 112.18 843.899 117.651 844.078 133.925 843.829 150.198 844.058 166.482 844.118 170.717 842.952 171.983 838.637 172.013 821.696 172.102 821.696 172.262 821.696 155.301 821.696 137.303 821.696 119.296 821.696 101.288 821.696 91.4025 825.563 87.6356 835.578 87.5858 848.413 87.536 861.219 87.5758 874.024 87.5758Z" fill="#472F8E" fill-rule="evenodd" fill-opacity="1" transform="matrix(1.00328 0 0 1 117.254 218.133)"/><path d="M696.581 87.516C696.531 88.4844 696.388 89.4456 696.152 90.3861 686.426 115.878 676.686 141.372 666.934 166.87 665.578 170.448 663.187 171.923 659.509 171.913 649.733 171.913 639.967 171.853 630.201 171.913 626.803 171.913 624.172 170.837 622.927 167.578 612.782 141.12 602.687 114.652 592.293 87.4563 599.528 87.4563 605.985 87.6456 612.423 87.3865 616.18 87.227 616.409 89.9376 617.326 92.2496 623.624 108.623 629.942 124.996 636.121 141.409 637.735 145.704 639.599 149.66 644.89 149.62 650.182 149.58 651.966 145.445 653.56 141.239 659.689 125.026 665.997 108.882 671.956 92.6183 673.361 88.7816 675.175 87.1174 679.41 87.4064 684.971 87.815 690.601 87.516 696.581 87.516Z" fill="#472F8E" fill-rule="evenodd" fill-opacity="1" transform="matrix(1.00328 0 0 1 117.254 218.133)"/><path d="M1007.28 212.552C1017.02 212.552 1025.14 212.552 1033.26 212.552 1041.38 212.552 1042.15 213.339 1042.23 221.521 1042.3 234.635 1042.3 234.635 1029.01 234.635 1021.41 234.635 1013.81 234.755 1006.22 234.635 1003.23 234.565 999.11 236.409 999.02 230.27 998.921 224.361 1002.64 225.577 1005.9 225.557 1012.87 225.497 1019.8 225.606 1026.74 225.487 1028.74 225.487 1032.14 226.483 1032.25 223.773 1032.36 220.863 1028.96 221.869 1027.01 221.84 1020.04 221.71 1013.11 221.63 1006.17 221.84 1001.31 221.979 999.13 220.345 999.06 215.113 998.851 199.667 998.681 199.676 1014.01 199.676 1021.61 199.676 1029.22 199.796 1036.81 199.617 1040.41 199.537 1042.4 200.105 1042.35 204.48 1042.35 208.576 1040.88 209.722 1037.02 209.602 1029.64 209.363 1022.26 209.472 1014.88 209.602 1012.84 209.552 1010.54 208.725 1007.28 212.552Z" fill="#9E9F9E" fill-rule="evenodd" fill-opacity="1" transform="matrix(1.00328 0 0 1 117.254 218.133)"/><path d="M479.853 212.522 479.853 212.522C483.112 212.522 486.361 212.522 489.619 212.522 490.736 212.522 491.912 212.163 491.872 210.798 491.832 209.433 490.775 208.964 489.61 208.964 483.321 208.964 477.023 208.904 470.735 208.964 469.4 208.964 468.044 209.502 468.194 211.177 468.333 212.592 469.699 212.532 470.745 212.542 473.784 212.542 476.814 212.542 479.853 212.542ZM483.84 221.7C480.152 221.7 476.465 221.64 472.778 221.7 471.193 221.7 468.662 221.142 468.792 223.693 468.941 226.055 471.413 225.387 473.027 225.427 476.495 225.517 480.003 225.656 483.431 225.427 487.168 225.158 488.304 226.613 488.264 230.27 488.264 233.738 486.989 234.785 483.66 234.685 477.382 234.486 471.084 234.585 464.786 234.685 460.471 234.685 458.358 232.692 458.358 228.367 458.358 220.992 458.358 213.618 458.358 206.234 458.358 201.998 460.301 199.696 464.596 199.686 474.801 199.686 484.996 199.686 495.19 199.686 499.694 199.686 501.807 201.939 502.166 206.423 503.362 220.375 502.166 221.75 488.364 221.75Z" fill="#9E9F9E" fill-rule="evenodd" fill-opacity="1" transform="matrix(1.00328 0 0 1 117.254 218.133)"/><path d="M923.184 212.482C926.432 212.482 929.681 212.482 932.93 212.482 934.076 212.482 935.232 212.024 935.062 210.698 934.82 209.91 934.187 209.302 933.388 209.094 926.678 208.981 919.971 208.981 913.268 209.094 912.295 209.048 911.469 209.799 911.422 210.772 911.415 210.931 911.429 211.091 911.464 211.246 911.634 212.313 912.59 212.502 913.457 212.512 916.706 212.512 919.955 212.512 923.204 212.512ZM923.184 199.627C928.166 199.627 933.149 199.627 938.132 199.627 943.114 199.627 945.347 201.978 945.317 206.792 945.317 207.011 945.317 207.23 945.317 207.44 945.895 221.252 945.466 221.7 931.794 221.7 926.363 221.7 920.941 221.7 915.51 221.7 914.045 221.7 912.022 221.471 911.913 223.494 911.803 225.517 913.846 225.417 915.311 225.487 919.207 225.547 923.134 225.706 927.02 225.487 930.558 225.278 931.445 226.822 931.425 230.071 931.405 233.32 930.727 234.874 927.1 234.755 920.603 234.525 914.085 234.685 907.568 234.685 903.582 234.685 901.589 232.532 901.589 228.626 901.529 221.032 901.529 213.439 901.589 205.845 901.589 201.52 904.03 199.637 908.226 199.667 913.218 199.657 918.211 199.627 923.204 199.627Z" fill="#9E9F9E" fill-rule="evenodd" fill-opacity="1" transform="matrix(1.00328 0 0 1 117.254 218.133)"/><path d="M577.484 199.627C582.467 199.627 587.45 199.627 592.432 199.627 596.299 199.627 598.671 201.45 598.711 205.466 598.79 213.917 598.631 222.408 598.79 230.838 598.87 234.884 596.319 234.545 593.628 234.675 590.509 234.824 588.646 234.107 588.835 230.44 589.034 225.457 588.656 220.474 588.945 215.492 589.194 211.087 587.779 209.443 583.105 209.373 564.898 209.104 564.838 208.944 564.858 227.679 564.858 231.915 565.077 235.492 558.879 234.765 555.73 234.396 554.813 233.3 554.893 230.38 554.992 222.577 554.893 214.764 554.893 206.961 554.893 201.929 557.125 199.348 562.456 199.577 567.509 199.796 572.502 199.617 577.484 199.627Z" fill="#9E9F9E" fill-rule="evenodd" fill-opacity="1" transform="matrix(1.00328 0 0 1 117.254 218.133)"/><path d="M750.194 234.635C745.212 234.635 740.229 234.535 735.246 234.635 730.722 234.755 728.271 232.881 728.271 228.207 728.271 219.966 728.38 211.725 728.211 203.503 728.131 199.517 730.513 199.627 733.303 199.517 736.293 199.437 738.286 199.926 738.176 203.673 737.977 209.084 738.246 214.515 738.096 219.926 737.997 223.663 739.242 225.626 743.298 225.467 748.062 225.278 752.835 225.337 757.609 225.467 760.967 225.537 762.253 223.932 762.203 220.723 762.133 215.302 762.352 209.881 762.143 204.47 762.003 200.892 763.139 199.378 766.926 199.487 770.185 199.597 772.268 199.936 772.138 204.021 771.909 211.994 772.068 220.056 772.078 228.078 772.078 232.692 769.766 234.735 765.172 234.615 760.16 234.535 755.177 234.635 750.194 234.635Z" fill="#9E9F9E" fill-rule="evenodd" fill-opacity="1" transform="matrix(1.00328 0 0 1 117.254 218.133)"/><path d="M383.478 234.486C376.612 236.479 374.011 232.981 372.387 227.022 369.816 217.624 366.477 208.446 363.727 199.118 363.189 197.315 360.219 194.325 363.996 193.388 367.115 192.621 371.31 191.445 372.825 196.966 374.928 204.679 377.638 212.243 380.209 219.827 380.797 221.56 380.768 224.261 383.199 224.401 386.049 224.57 386.129 221.83 386.787 219.797 389.089 212.582 391.769 205.466 393.762 198.152 394.908 193.837 397.191 192.741 401.226 193.02 404.136 193.229 405.063 193.936 404.057 197.006 400.303 208.3 396.672 219.64 393.164 231.028 391.341 236.748 386.707 233.818 383.478 234.486Z" fill="#9E9F9E" fill-rule="evenodd" fill-opacity="1" transform="matrix(1.00328 0 0 1 117.254 218.133)"/><path d="M660.964 234.575C657.496 235.133 656.261 233.579 656.41 230.23 656.6 225.686 656.54 221.132 656.41 216.588 656.33 213.748 657.467 210.509 653.421 208.914 651.557 208.187 652.344 205.825 652.344 204.171 652.344 200.185 657.716 193.209 660.725 193.109 663.167 193.059 665.568 192.87 665.758 196.458 665.907 199.358 668.159 199.786 670.471 199.597 674.059 199.288 674.796 201.151 674.816 204.3 674.816 207.609 674.308 209.841 670.292 209.512 666.435 209.203 665.558 211.605 665.608 214.874 665.688 219.856 665.479 224.839 665.668 229.822 665.847 233.369 664.771 235.263 660.964 234.575Z" fill="#9E9F9E" fill-rule="evenodd" fill-opacity="1" transform="matrix(1.00328 0 0 1 117.254 218.133)"/><path d="M824.696 218.372 824.696 206.005C824.696 202.487 826.171 199.936 829.848 199.736 834.831 199.477 839.813 199.627 844.796 199.667 848.633 199.667 847.716 202.656 847.786 204.878 847.855 207.101 848.045 209.243 844.796 209.502 841.547 209.761 837.591 207.958 835.508 210.678 833.107 213.837 834.831 218.232 834.512 222.079 834.347 224.461 834.347 226.852 834.512 229.234 834.781 232.851 834.003 234.824 829.639 234.775 825.553 234.775 824.277 233.32 824.556 229.433 824.895 225.766 824.686 222.059 824.696 218.372Z" fill="#9E9F9E" fill-rule="evenodd" fill-opacity="1" transform="matrix(1.00328 0 0 1 117.254 218.133)"/><path d="M126.69 236.798C136.197 220.335 147.617 205.177 158.26 188.505 167.518 202.258 176.328 215.292 185.077 228.367 195.893 244.524 206.679 260.698 217.435 276.888 218.631 278.672 220.195 280.257 220.424 282.539 219.478 283.705 218.152 283.635 216.857 283.635 198.69 283.635 180.513 283.515 162.336 283.735 158.589 283.735 157.025 281.741 155.281 279.17 145.814 265.02 136.283 250.895 126.69 236.798Z" fill="#D4C8B8" fill-rule="evenodd" fill-opacity="1" transform="matrix(1.00328 0 0 1 117.254 218.133)"/><path d="M1.04637 235.552 63.928 235.741 90.984 276.948C92.1599 278.742 93.7245 280.326 93.9736 282.598 92.5785 284.073 90.7548 283.595 89.0806 283.595 71.5615 283.595 54.0323 283.595 36.5132 283.595 33.8524 283.595 31.67 283.426 29.8862 280.725 20.5088 266.564 10.8623 252.503 1.2955 238.382 0.687612 237.475 0 236.588 1.04637 235.552Z" fill="#D4C8B8" fill-rule="evenodd" fill-opacity="1" transform="matrix(1.00328 0 0 1 117.254 218.133)"/><path d="M253.46 142.017C244.65 155.091 235.801 168.136 227.051 181.26 221.73 189.233 221.72 189.352 216.458 181.559 208.366 169.601 200.404 157.503 192.372 145.475 191.535 144.229 190.379 143.113 190.748 141.409 209.296 141.409 227.845 141.449 246.394 141.528 248.746 141.509 251.128 141.847 253.46 142.017Z" fill="#E2BF91" fill-rule="evenodd" fill-opacity="1" transform="matrix(1.00328 0 0 1 117.254 218.133)"/></g></g></g></g></svg>